<svg width="160" height="160" viewBox="0 0 160 160" fill="none" xmlns="http://www.w3.org/2000/svg">
<mask id="path-1-inside-1" fill="white">
<path d="M152.544 113.724C145.156 129.617 132.753 142.644 117.242 150.803C101.731 158.962 83.9693 161.801 66.6875 158.885C49.4056 155.968 33.5597 147.457 21.585 134.66C9.61024 121.862 2.1694 105.487 0.405976 88.0493C-1.35745 70.612 2.65414 53.0782 11.8242 38.1424C20.9943 23.2066 34.8154 11.6954 51.1634 5.37794C67.5114 -0.939507 85.4817 -1.71364 102.312 3.17452C119.143 8.06268 133.903 18.3426 144.324 32.4345L133.808 40.2107C125.091 28.4226 112.744 19.8233 98.6647 15.7343C84.5855 11.6452 69.5531 12.2928 55.8777 17.5775C42.2024 22.8621 30.6408 32.4914 22.9699 44.9854C15.299 57.4794 11.9432 72.1468 13.4183 86.7334C14.8935 101.32 21.1179 115.018 31.1349 125.724C41.1519 136.429 54.4073 143.549 68.8638 145.988C83.3204 148.428 98.1781 146.053 111.154 139.228C124.129 132.403 134.504 121.505 140.684 108.211L152.544 113.724Z"/>
</mask>
<path d="M152.544 113.724C145.156 129.617 132.753 142.644 117.242 150.803C101.731 158.962 83.9693 161.801 66.6875 158.885C49.4056 155.968 33.5597 147.457 21.585 134.66C9.61024 121.862 2.1694 105.487 0.405976 88.0493C-1.35745 70.612 2.65414 53.0782 11.8242 38.1424C20.9943 23.2066 34.8154 11.6954 51.1634 5.37794C67.5114 -0.939507 85.4817 -1.71364 102.312 3.17452C119.143 8.06268 133.903 18.3426 144.324 32.4345L133.808 40.2107C125.091 28.4226 112.744 19.8233 98.6647 15.7343C84.5855 11.6452 69.5531 12.2928 55.8777 17.5775C42.2024 22.8621 30.6408 32.4914 22.9699 44.9854C15.299 57.4794 11.9432 72.1468 13.4183 86.7334C14.8935 101.32 21.1179 115.018 31.1349 125.724C41.1519 136.429 54.4073 143.549 68.8638 145.988C83.3204 148.428 98.1781 146.053 111.154 139.228C124.129 132.403 134.504 121.505 140.684 108.211L152.544 113.724Z" fill="#C4C4C4" stroke="white" stroke-width="2" mask="url(#path-1-inside-1)"/>
<path d="M33.716 66.138H23.576L21.392 71H19.39L27.71 52.8H29.608L37.928 71H35.9L33.716 66.138ZM33.014 64.578L28.646 54.802L24.278 64.578H33.014Z" fill="#4CC35B"/>
<path d="M52.1537 57.324V71H50.3077V58.962H43.7557L43.5737 62.342C43.435 65.1847 43.1057 67.3687 42.5857 68.894C42.0657 70.4193 41.1383 71.182 39.8037 71.182C39.4397 71.182 38.9977 71.1127 38.4777 70.974L38.6077 69.388C38.9197 69.4573 39.1363 69.492 39.2577 69.492C39.9683 69.492 40.5057 69.1627 40.8697 68.504C41.2337 67.8453 41.4763 67.0307 41.5977 66.06C41.719 65.0893 41.823 63.8067 41.9097 62.212L42.1437 57.324H52.1537ZM62.1074 57.22C63.8927 57.22 65.2621 57.6707 66.2154 58.572C67.1687 59.456 67.6454 60.7733 67.6454 62.524V71H65.8774V68.868C65.4614 69.5787 64.8461 70.1333 64.0314 70.532C63.2341 70.9307 62.2807 71.13 61.1714 71.13C59.6461 71.13 58.4327 70.766 57.5314 70.038C56.6301 69.31 56.1794 68.348 56.1794 67.152C56.1794 65.9907 56.5954 65.0547 57.4274 64.344C58.2767 63.6333 59.6201 63.278 61.4574 63.278H65.7994V62.446C65.7994 61.2673 65.4701 60.3747 64.8114 59.768C64.1527 59.144 63.1907 58.832 61.9254 58.832C61.0587 58.832 60.2267 58.9793 59.4294 59.274C58.6321 59.5513 57.9474 59.9413 57.3754 60.444L56.5434 59.066C57.2367 58.4767 58.0687 58.026 59.0394 57.714C60.0101 57.3847 61.0327 57.22 62.1074 57.22ZM61.4574 69.674C62.4974 69.674 63.3901 69.44 64.1354 68.972C64.8807 68.4867 65.4354 67.7933 65.7994 66.892V64.656H61.5094C59.1694 64.656 57.9994 65.4707 57.9994 67.1C57.9994 67.8973 58.3027 68.53 58.9094 68.998C59.5161 69.4487 60.3654 69.674 61.4574 69.674ZM77.5256 64.916H74.4056V71H72.5596V57.324H74.4056V63.33H77.5516L82.3616 57.324H84.3636L78.9816 63.954L84.7536 71H82.5696L77.5256 64.916ZM106.543 57.324V71H87.667V57.324H89.513V69.388H96.221V57.324H98.067V69.388H104.697V57.324H106.543ZM111.814 57.324H113.66V68.192L122.786 57.324H124.424V71H122.578V60.132L113.478 71H111.814V57.324ZM129.714 57.324H131.56V63.382H140.166V57.324H142.012V71H140.166V64.968H131.56V71H129.714V57.324Z" fill="white"/>
<path d="M56.59 86.6V102H55.028V89.68L48.978 100.042H48.208L42.158 89.746V102H40.596V86.6H41.938L48.626 98.018L55.248 86.6H56.59Z" fill="#4CC35B"/>
<path d="M65.3876 90.34C66.8983 90.34 68.0569 90.7213 68.8636 91.484C69.6703 92.232 70.0736 93.3467 70.0736 94.828V102H68.5776V100.196C68.2256 100.797 67.7049 101.267 67.0156 101.604C66.3409 101.941 65.5343 102.11 64.5956 102.11C63.3049 102.11 62.2783 101.802 61.5156 101.186C60.7529 100.57 60.3716 99.756 60.3716 98.744C60.3716 97.7613 60.7236 96.9693 61.4276 96.368C62.1463 95.7667 63.2829 95.466 64.8376 95.466H68.5116V94.762C68.5116 93.7647 68.2329 93.0093 67.6756 92.496C67.1183 91.968 66.3043 91.704 65.2336 91.704C64.5003 91.704 63.7963 91.8287 63.1216 92.078C62.4469 92.3127 61.8676 92.6427 61.3836 93.068L60.6796 91.902C61.2663 91.4033 61.9703 91.022 62.7916 90.758C63.6129 90.4793 64.4783 90.34 65.3876 90.34ZM64.8376 100.878C65.7176 100.878 66.4729 100.68 67.1036 100.284C67.7343 99.8733 68.2036 99.2867 68.5116 98.524V96.632H64.8816C62.9016 96.632 61.9116 97.3213 61.9116 98.7C61.9116 99.3747 62.1683 99.91 62.6816 100.306C63.1949 100.687 63.9136 100.878 64.8376 100.878ZM78.4338 96.852H75.7938V102H74.2318V90.428H75.7938V95.51H78.4558L82.5258 90.428H84.2198L79.6658 96.038L84.5498 102H82.7018L78.4338 96.852ZM91.4468 102.11C90.3028 102.11 89.2761 101.861 88.3668 101.362C87.4721 100.863 86.7681 100.167 86.2548 99.272C85.7414 98.3627 85.4848 97.3433 85.4848 96.214C85.4848 95.0847 85.7414 94.0727 86.2548 93.178C86.7681 92.2833 87.4721 91.5867 88.3668 91.088C89.2761 90.5893 90.3028 90.34 91.4468 90.34C92.4441 90.34 93.3314 90.538 94.1088 90.934C94.9008 91.3153 95.5241 91.88 95.9788 92.628L94.8128 93.42C94.4314 92.848 93.9474 92.4227 93.3608 92.144C92.7741 91.8507 92.1361 91.704 91.4468 91.704C90.6108 91.704 89.8554 91.8947 89.1808 92.276C88.5208 92.6427 88.0001 93.1707 87.6188 93.86C87.2521 94.5493 87.0688 95.334 87.0688 96.214C87.0688 97.1087 87.2521 97.9007 87.6188 98.59C88.0001 99.2647 88.5208 99.7927 89.1808 100.174C89.8554 100.541 90.6108 100.724 91.4468 100.724C92.1361 100.724 92.7741 100.585 93.3608 100.306C93.9474 100.027 94.4314 99.602 94.8128 99.03L95.9788 99.822C95.5241 100.57 94.9008 101.142 94.1088 101.538C93.3168 101.919 92.4294 102.11 91.4468 102.11ZM99.0033 90.428H100.565V99.624L108.287 90.428H109.673V102H108.111V92.804L100.411 102H99.0033V90.428ZM127.086 90.428V102H125.656V92.848L120.97 100.592H120.266L115.58 92.826V102H114.15V90.428H115.734L120.64 98.766L125.634 90.428H127.086Z" fill="white"/>
<line x1="15" y1="79.5" x2="146" y2="79.5" stroke="#4CC35B"/>
</svg>
