<svg width="116" height="39" viewBox="0 0 116 39" fill="none" xmlns="http://www.w3.org/2000/svg">
<path d="M10.188 13.634H3.168L1.656 17H0.27L6.03 4.4H7.344L13.104 17H11.7L10.188 13.634ZM9.702 12.554L6.678 5.786L3.654 12.554H9.702Z" fill="#4CC35B"/>
<path d="M22.9525 7.532V17H21.6745V8.666H17.1385L17.0125 11.006C16.9165 12.974 16.6885 14.486 16.3285 15.542C15.9685 16.598 15.3265 17.126 14.4025 17.126C14.1505 17.126 13.8445 17.078 13.4845 16.982L13.5745 15.884C13.7905 15.932 13.9405 15.956 14.0245 15.956C14.5165 15.956 14.8885 15.728 15.1405 15.272C15.3925 14.816 15.5605 14.252 15.6445 13.58C15.7285 12.908 15.8005 12.02 15.8605 10.916L16.0225 7.532H22.9525ZM29.8436 7.46C31.0796 7.46 32.0276 7.772 32.6876 8.396C33.3476 9.008 33.6776 9.92 33.6776 11.132V17H32.4536V15.524C32.1656 16.016 31.7396 16.4 31.1756 16.676C30.6236 16.952 29.9636 17.09 29.1956 17.09C28.1396 17.09 27.2996 16.838 26.6756 16.334C26.0516 15.83 25.7396 15.164 25.7396 14.336C25.7396 13.532 26.0276 12.884 26.6036 12.392C27.1916 11.9 28.1216 11.654 29.3936 11.654H32.3996V11.078C32.3996 10.262 32.1716 9.644 31.7156 9.224C31.2596 8.792 30.5936 8.576 29.7176 8.576C29.1176 8.576 28.5416 8.678 27.9896 8.882C27.4376 9.074 26.9636 9.344 26.5676 9.692L25.9916 8.738C26.4716 8.33 27.0476 8.018 27.7196 7.802C28.3916 7.574 29.0996 7.46 29.8436 7.46ZM29.3936 16.082C30.1136 16.082 30.7316 15.92 31.2476 15.596C31.7636 15.26 32.1476 14.78 32.3996 14.156V12.608H29.4296C27.8096 12.608 26.9996 13.172 26.9996 14.3C26.9996 14.852 27.2096 15.29 27.6296 15.614C28.0496 15.926 28.6376 16.082 29.3936 16.082ZM40.5177 12.788H38.3577V17H37.0797V7.532H38.3577V11.69H40.5357L43.8657 7.532H45.2517L41.5257 12.122L45.5217 17H44.0097L40.5177 12.788ZM60.6067 7.532V17H47.5387V7.532H48.8167V15.884H53.4607V7.532H54.7387V15.884H59.3287V7.532H60.6067ZM64.2555 7.532H65.5335V15.056L71.8515 7.532H72.9855V17H71.7075V9.476L65.4075 17H64.2555V7.532ZM76.6481 7.532H77.9261V11.726H83.8841V7.532H85.1621V17H83.8841V12.824H77.9261V17H76.6481V7.532Z" fill="white"/>
<path d="M62.52 23.8V35H61.384V26.04L56.984 33.576H56.424L52.024 26.088V35H50.888V23.8H51.864L56.728 32.104L61.544 23.8H62.52Z" fill="#4CC35B"/>
<path d="M68.9183 26.52C70.0169 26.52 70.8596 26.7973 71.4463 27.352C72.0329 27.896 72.3263 28.7067 72.3263 29.784V35H71.2383V33.688C70.9823 34.1253 70.6036 34.4667 70.1023 34.712C69.6116 34.9573 69.0249 35.08 68.3423 35.08C67.4036 35.08 66.6569 34.856 66.1023 34.408C65.5476 33.96 65.2703 33.368 65.2703 32.632C65.2703 31.9173 65.5263 31.3413 66.0383 30.904C66.5609 30.4667 67.3876 30.248 68.5182 30.248H71.1903V29.736C71.1903 29.0107 70.9876 28.4613 70.5823 28.088C70.1769 27.704 69.5849 27.512 68.8063 27.512C68.2729 27.512 67.7609 27.6027 67.2703 27.784C66.7796 27.9547 66.3583 28.1947 66.0063 28.504L65.4943 27.656C65.9209 27.2933 66.4329 27.016 67.0303 26.824C67.6276 26.6213 68.2569 26.52 68.9183 26.52ZM68.5182 34.184C69.1583 34.184 69.7076 34.04 70.1663 33.752C70.6249 33.4533 70.9663 33.0267 71.1903 32.472V31.096H68.5503C67.1103 31.096 66.3903 31.5973 66.3903 32.6C66.3903 33.0907 66.5769 33.48 66.9503 33.768C67.3236 34.0453 67.8463 34.184 68.5182 34.184ZM78.4064 31.256H76.4864V35H75.3504V26.584H76.4864V30.28H78.4224L81.3824 26.584H82.6144L79.3024 30.664L82.8544 35H81.5104L78.4064 31.256ZM87.8704 35.08C87.0384 35.08 86.2917 34.8987 85.6304 34.536C84.9797 34.1733 84.4677 33.6667 84.0944 33.016C83.721 32.3547 83.5344 31.6133 83.5344 30.792C83.5344 29.9707 83.721 29.2347 84.0944 28.584C84.4677 27.9333 84.9797 27.4267 85.6304 27.064C86.2917 26.7013 87.0384 26.52 87.8704 26.52C88.5957 26.52 89.241 26.664 89.8064 26.952C90.3824 27.2293 90.8357 27.64 91.1664 28.184L90.3184 28.76C90.041 28.344 89.689 28.0347 89.2624 27.832C88.8357 27.6187 88.3717 27.512 87.8704 27.512C87.2624 27.512 86.713 27.6507 86.2224 27.928C85.7424 28.1947 85.3637 28.5787 85.0864 29.08C84.8197 29.5813 84.6864 30.152 84.6864 30.792C84.6864 31.4427 84.8197 32.0187 85.0864 32.52C85.3637 33.0107 85.7424 33.3947 86.2224 33.672C86.713 33.9387 87.2624 34.072 87.8704 34.072C88.3717 34.072 88.8357 33.9707 89.2624 33.768C89.689 33.5653 90.041 33.256 90.3184 32.84L91.1664 33.416C90.8357 33.96 90.3824 34.376 89.8064 34.664C89.2304 34.9413 88.585 35.08 87.8704 35.08ZM93.366 26.584H94.502V33.272L100.118 26.584H101.126V35H99.99V28.312L94.39 35H93.366V26.584ZM113.79 26.584V35H112.75V28.344L109.342 33.976H108.83L105.422 28.328V35H104.382V26.584H105.534L109.102 32.648L112.734 26.584H113.79Z" fill="white"/>
</svg>
